<?xml version="1.0" encoding="UTF-8"?>
<svg xmlns="http://www.w3.org/2000/svg" width="300" height="400" viewBox="0 0 300 400" fill="none">
  <g style="mix-blend-mode:multiply" opacity="0.5">
    <rect x="204" width="5.14127" height="5.83456" fill="#3A4078"></rect>
  </g>
  <g style="mix-blend-mode:multiply" opacity="0.5">
    <rect x="204" y="22.041" width="5.14127" height="5.83456" fill="#3A4078"></rect>
  </g>
  <g style="mix-blend-mode:multiply" opacity="0.5">
    <rect x="204" y="44.082" width="5.14127" height="5.83456" fill="#3A4078"></rect>
  </g>
  <g style="mix-blend-mode:multiply" opacity="0.5">
    <rect x="204" y="66.123" width="5.14127" height="5.83456" fill="#3A4078"></rect>
  </g>
  <g style="mix-blend-mode:multiply" opacity="0.5">
    <rect x="204" y="88.166" width="5.14127" height="5.83456" fill="#3A4078"></rect>
  </g>
  <g style="mix-blend-mode:multiply" opacity="0.5">
    <rect x="294.518" width="5.14127" height="5.83456" fill="#3A4078"></rect>
  </g>
  <g style="mix-blend-mode:multiply" opacity="0.5">
    <rect x="294.518" y="22.041" width="5.14127" height="5.83456" fill="#3A4078"></rect>
  </g>
  <g style="mix-blend-mode:multiply" opacity="0.5">
    <rect x="294.518" y="44.082" width="5.14127" height="5.83456" fill="#3A4078"></rect>
  </g>
  <g style="mix-blend-mode:multiply" opacity="0.5">
    <rect x="294.518" y="66.123" width="5.14127" height="5.83456" fill="#3A4078"></rect>
  </g>
  <g style="mix-blend-mode:multiply" opacity="0.5">
    <rect x="294.518" y="88.166" width="5.14127" height="5.83456" fill="#3A4078"></rect>
  </g>
  <g style="mix-blend-mode:multiply" opacity="0.5">
    <rect x="226.63" width="5.14127" height="5.83456" fill="#3A4078"></rect>
  </g>
  <g style="mix-blend-mode:multiply" opacity="0.5">
    <rect x="226.63" y="22.041" width="5.14127" height="5.83456" fill="#3A4078"></rect>
  </g>
  <g style="mix-blend-mode:multiply" opacity="0.5">
    <rect x="226.63" y="44.082" width="5.14127" height="5.83456" fill="#3A4078"></rect>
  </g>
  <g style="mix-blend-mode:multiply" opacity="0.5">
    <rect x="226.63" y="66.123" width="5.14127" height="5.83456" fill="#3A4078"></rect>
  </g>
  <g style="mix-blend-mode:multiply" opacity="0.5">
    <rect x="226.63" y="88.166" width="5.14127" height="5.83456" fill="#3A4078"></rect>
  </g>
  <g style="mix-blend-mode:multiply" opacity="0.5">
    <rect x="249.259" width="5.14127" height="5.83456" fill="#3A4078"></rect>
  </g>
  <g style="mix-blend-mode:multiply" opacity="0.5">
    <rect x="249.259" y="22.041" width="5.14127" height="5.83456" fill="#3A4078"></rect>
  </g>
  <g style="mix-blend-mode:multiply" opacity="0.5">
    <rect x="249.259" y="44.082" width="5.14127" height="5.83456" fill="#3A4078"></rect>
  </g>
  <g style="mix-blend-mode:multiply" opacity="0.5">
    <rect x="249.259" y="66.123" width="5.14127" height="5.83456" fill="#3A4078"></rect>
  </g>
  <g style="mix-blend-mode:multiply" opacity="0.5">
    <rect x="249.259" y="88.166" width="5.14127" height="5.83456" fill="#3A4078"></rect>
  </g>
  <g style="mix-blend-mode:multiply" opacity="0.5">
    <rect x="271.889" width="5.14127" height="5.83456" fill="#3A4078"></rect>
  </g>
  <g style="mix-blend-mode:multiply" opacity="0.5">
    <rect x="271.889" y="22.041" width="5.14127" height="5.83456" fill="#3A4078"></rect>
  </g>
  <g style="mix-blend-mode:multiply" opacity="0.5">
    <rect x="271.889" y="44.082" width="5.14127" height="5.83456" fill="#3A4078"></rect>
  </g>
  <g style="mix-blend-mode:multiply" opacity="0.5">
    <rect x="271.889" y="66.123" width="5.14127" height="5.83456" fill="#3A4078"></rect>
  </g>
  <g style="mix-blend-mode:multiply" opacity="0.5">
    <rect x="271.889" y="88.166" width="5.14127" height="5.83456" fill="#3A4078"></rect>
  </g>
  <g style="mix-blend-mode:multiply" opacity="0.52">
    <path d="M300 0H222V36C222 60.8528 242.147 81 267 81H300V0Z" fill="#F5C4A5"></path>
  </g>
</svg>
