<svg width="873" height="691" viewBox="0 0 873 691" fill="none" xmlns="http://www.w3.org/2000/svg">
<g style="mix-blend-mode:multiply" opacity="0.5">
<rect x="414" width="28.4329" height="27.2482" fill="#F38641"/>
<rect x="414" y="102.936" width="28.4329" height="27.2482" fill="#F38641"/>
<rect x="414" y="205.877" width="28.4329" height="27.2482" fill="#F38641"/>
<rect x="414" y="308.814" width="28.4329" height="27.2482" fill="#F38641"/>
<rect x="414" y="411.752" width="28.4329" height="27.2482" fill="#F38641"/>
<rect x="843.654" width="28.4329" height="27.2482" fill="#F38641"/>
<rect x="843.654" y="102.936" width="28.4329" height="27.2482" fill="#F38641"/>
<rect x="843.654" y="205.877" width="28.4329" height="27.2482" fill="#F38641"/>
<rect x="843.654" y="308.814" width="28.4329" height="27.2482" fill="#F38641"/>
<rect x="843.654" y="411.752" width="28.4329" height="27.2482" fill="#F38641"/>
<rect x="521.413" width="28.4329" height="27.2482" fill="#F38641"/>
<rect x="521.413" y="102.936" width="28.4329" height="27.2482" fill="#F38641"/>
<rect x="521.413" y="205.877" width="28.4329" height="27.2482" fill="#F38641"/>
<rect x="521.413" y="308.814" width="28.4329" height="27.2482" fill="#F38641"/>
<rect x="521.413" y="411.752" width="28.4329" height="27.2482" fill="#F38641"/>
<rect x="628.827" width="28.4329" height="27.2482" fill="#F38641"/>
<rect x="628.827" y="102.936" width="28.4329" height="27.2482" fill="#F38641"/>
<rect x="628.827" y="205.877" width="28.4329" height="27.2482" fill="#F38641"/>
<rect x="628.827" y="308.814" width="28.4329" height="27.2482" fill="#F38641"/>
<rect x="628.827" y="411.752" width="28.4329" height="27.2482" fill="#F38641"/>
<rect x="736.24" width="28.4329" height="27.2482" fill="#F38641"/>
<rect x="736.24" y="102.936" width="28.4329" height="27.2482" fill="#F38641"/>
<rect x="736.24" y="205.877" width="28.4329" height="27.2482" fill="#F38641"/>
<rect x="736.24" y="308.814" width="28.4329" height="27.2482" fill="#F38641"/>
<rect x="736.24" y="411.752" width="28.4329" height="27.2482" fill="#F38641"/>
<path d="M130.098 367.252L142.379 434.645C142.693 436.367 140.8 437.633 139.329 436.686L82.95 400.38C81.6519 399.544 79.9363 400.432 79.8691 401.975L76.8879 470.471C76.8182 472.071 74.9892 472.945 73.701 471.992L34.2971 442.868C33.0089 441.916 31.1799 442.789 31.1103 444.39L28.3724 507.295C28.3035 508.876 26.5122 509.755 25.2197 508.841L3.70633 493.631" stroke="#F38641" stroke-width="7" stroke-linecap="round"/>
<path d="M86.4501 574.563L123.044 632.474C123.978 633.954 126.228 633.604 126.67 631.91L143.577 567.02C143.966 565.525 145.83 565.017 146.924 566.107L195.496 614.495C196.631 615.626 198.568 615.03 198.871 613.457L208.149 565.344C208.452 563.771 210.389 563.176 211.524 564.306L256.131 608.745C257.253 609.862 259.166 609.295 259.498 607.748L265.032 581.989" stroke="#F38641" stroke-width="7" stroke-linecap="round"/>
<circle r="105.5" transform="matrix(-1 0 0 1 255 170)" stroke="#F38641" stroke-width="7"/>
<circle r="33.5" transform="matrix(-1 0 0 1 292 393)" stroke="#F38641" stroke-width="7"/>
</g>
</svg>
