<?xml version="1.0" encoding="UTF-8"?>
<svg xmlns="http://www.w3.org/2000/svg" width="1518" height="1495" viewBox="0 0 1518 1495" fill="none">
  <g clip-path="url(#clip0_611_1792)">
    <g style="mix-blend-mode:multiply" opacity="0.6">
      <path d="M-8.7666 171.232H755.198H905.028C1244.21 171.232 1519.16 446.19 1519.16 785.368V1399.5H162.467C67.8972 1399.5 -8.7666 1322.84 -8.7666 1228.27V171.232Z" fill="#F38641"></path>
    </g>
    <g style="mix-blend-mode:color-dodge" opacity="0.3">
      <path d="M-8.7666 171.232H755.198H905.028C1244.21 171.232 1519.16 446.19 1519.16 785.368V1399.5H162.467C67.8972 1399.5 -8.7666 1322.84 -8.7666 1228.27V171.232Z" fill="#F38641"></path>
    </g>
    <g style="mix-blend-mode:color-dodge" opacity="0.3">
      <path d="M-8.7666 467.6H755.198H1053.21C1310.55 467.6 1519.16 676.214 1519.16 933.552V1399.51H162.467C67.8972 1399.51 -8.7666 1322.84 -8.7666 1228.27V467.6Z" fill="#F38641"></path>
    </g>
    <g style="mix-blend-mode:color-dodge" opacity="0.3">
      <path d="M-8.7666 727.742H755.198H1183.28C1368.78 727.742 1519.16 878.121 1519.16 1063.62V1399.5H162.467C67.8972 1399.5 -8.7666 1322.84 -8.7666 1228.27V727.742Z" fill="#F38641"></path>
    </g>
    <path opacity="0.5" d="M1176.7 135.012L1061.43 108.747C1055.81 107.467 1051.37 113.51 1054.27 118.487L1110 214.017C1112.56 218.407 1109.39 223.921 1104.31 223.921H989.844C984.571 223.921 981.436 229.81 984.381 234.185L1028.19 299.275C1031.14 303.649 1028 309.538 1022.73 309.538H918.737C913.527 309.538 910.38 315.302 913.197 319.685L936.311 355.639" stroke="white" stroke-width="9.87885" stroke-linecap="round"></path>
    <g style="mix-blend-mode:overlay" opacity="0.7">
      <mask id="path-6-inside-1_611_1792" fill="white">
        <path d="M389.424 318.391C360.215 295.607 326.804 278.798 291.1 268.926C255.395 259.054 218.095 256.311 181.33 260.853C144.566 265.396 109.055 277.136 76.8276 295.402C44.5997 313.668 16.2853 338.103 -6.49917 367.312C-29.2836 396.521 -46.0919 429.932 -55.9642 465.637C-65.8365 501.341 -68.5796 538.641 -64.0369 575.406C-59.4941 612.171 -47.7544 647.681 -29.4882 679.908C-11.2219 712.136 13.2132 740.451 42.4221 763.235L215.923 540.813L389.424 318.391Z"></path>
      </mask>
      <path d="M389.424 318.391C360.215 295.607 326.804 278.798 291.1 268.926C255.395 259.054 218.095 256.311 181.33 260.853C144.566 265.396 109.055 277.136 76.8276 295.402C44.5997 313.668 16.2853 338.103 -6.49917 367.312C-29.2836 396.521 -46.0919 429.932 -55.9642 465.637C-65.8365 501.341 -68.5796 538.641 -64.0369 575.406C-59.4941 612.171 -47.7544 647.681 -29.4882 679.908C-11.2219 712.136 13.2132 740.451 42.4221 763.235L215.923 540.813L389.424 318.391Z" stroke="white" stroke-width="19.7577" mask="url(#path-6-inside-1_611_1792)"></path>
    </g>
    <g style="mix-blend-mode:overlay" opacity="0.7">
      <mask id="path-7-inside-2_611_1792" fill="white">
        <path d="M976.09 1165.87C1001.17 1138.61 1020.64 1106.68 1033.39 1071.89C1046.13 1037.11 1051.9 1000.15 1050.36 963.142C1048.82 926.13 1040.01 889.783 1024.42 856.176C1008.84 822.57 986.785 792.362 959.525 767.278C932.266 742.194 900.333 722.725 865.549 709.982C830.765 697.239 793.812 691.472 756.8 693.01C719.787 694.548 683.44 703.361 649.834 718.947C616.227 734.532 586.019 756.584 560.935 783.843L768.513 974.855L976.09 1165.87Z"></path>
      </mask>
      <path d="M976.09 1165.87C1001.17 1138.61 1020.64 1106.68 1033.39 1071.89C1046.13 1037.11 1051.9 1000.15 1050.36 963.142C1048.82 926.13 1040.01 889.783 1024.42 856.176C1008.84 822.57 986.785 792.362 959.525 767.278C932.266 742.194 900.333 722.725 865.549 709.982C830.765 697.239 793.812 691.472 756.8 693.01C719.787 694.548 683.44 703.361 649.834 718.947C616.227 734.532 586.019 756.584 560.935 783.843L768.513 974.855L976.09 1165.87Z" stroke="white" stroke-width="19.7577" mask="url(#path-7-inside-2_611_1792)"></path>
    </g>
    <g style="mix-blend-mode:color-dodge" opacity="0.5">
      <path d="M1388.26 1180.97L1446.15 1077.89C1448.97 1072.86 1444.43 1066.89 1438.84 1068.26L1331.42 1094.6C1326.49 1095.82 1322.1 1091.21 1323.54 1086.34L1356.01 976.576C1357.5 971.519 1352.74 966.843 1347.71 968.425L1272.87 991.974C1267.84 993.557 1263.08 988.88 1264.58 983.824L1294.08 884.104C1295.55 879.108 1290.92 874.455 1285.92 875.914L1244.88 887.879" stroke="white" stroke-width="9.87885" stroke-linecap="round"></path>
    </g>
    <g style="mix-blend-mode:color-dodge" opacity="0.5">
      <path d="M1225.12 1052.53L1266.16 1040.56C1271.16 1039.1 1275.79 1043.76 1274.32 1048.75L1244.82 1148.47C1243.32 1153.53 1248.08 1158.2 1253.11 1156.62L1327.95 1133.07C1332.98 1131.49 1337.74 1136.17 1336.25 1141.22L1303.78 1250.99C1302.34 1255.86 1306.73 1260.46 1311.66 1259.25L1367.17 1245.64" stroke="white" stroke-width="9.87885" stroke-linecap="round"></path>
    </g>
    <circle opacity="0.5" cx="1448.36" cy="930.26" r="39.5154" stroke="white" stroke-width="9.87885"></circle>
    <circle opacity="0.5" cx="758.492" cy="362.224" r="21.4042" stroke="white" stroke-width="9.87885"></circle>
    <circle opacity="0.5" cx="1219.5" cy="273.316" r="37.869" stroke="white" stroke-width="9.87885"></circle>
  </g>
  <defs>
    <clipPath id="clip0_611_1792">
      <rect width="1518" height="1495" fill="white"></rect>
    </clipPath>
  </defs>
</svg>
