<svg width="1280" height="410" viewBox="0 0 1280 410" fill="none" xmlns="http://www.w3.org/2000/svg">
<g clip-path="url(#clip0_611_3001)">
<g style="mix-blend-mode:overlay">
<path opacity="0.22" d="M184 410L184 172.298C184 72.1699 102.83 -9.00001 2.70194 -9.00001L-168 -9.00001L-168 252.875C-168 339.653 -97.6528 410 -10.875 410L184 410Z" fill="white"/>
<path opacity="0.22" d="M109 410L109 172.298C109 72.1699 27.8301 -9.00001 -72.2981 -9.00001H-168L-168 252.875C-168 339.653 -97.6527 410 -10.875 410L109 410Z" fill="white"/>
<path opacity="0.22" d="M52 410L52 172.298C52 72.1699 -29.1699 -9.00001 -129.298 -9.00001H-157L-157 228.702C-157 328.83 -75.8301 410 24.2981 410H52Z" fill="white"/>
</g>
<path opacity="0.2" d="M11 326L46.0054 318.024C47.7115 317.635 49.059 319.47 48.1773 320.982L31.2545 349.992C30.4767 351.326 31.4385 353 32.9821 353H67.743C69.3444 353 70.2964 354.788 69.4022 356.117L56.0978 375.883C55.2036 377.212 56.1556 379 57.757 379H89.3367C90.919 379 91.8747 380.75 91.019 382.082L84 393" stroke="white" stroke-width="3" stroke-linecap="round"/>
<circle opacity="0.5" cx="106" cy="111" r="21.5" stroke="white" stroke-width="3"/>
<circle opacity="0.5" cx="159.5" cy="41.5" r="8" stroke="white" stroke-width="3"/>
<g style="mix-blend-mode:overlay">
<path opacity="0.22" d="M1095 410L1095 172.298C1095 72.1699 1176.17 -9.00001 1276.3 -9.00001L1447 -9.00001L1447 252.875C1447 339.653 1376.65 410 1289.88 410L1095 410Z" fill="white"/>
<path opacity="0.22" d="M1170 410L1170 172.298C1170 72.1699 1251.17 -9.00001 1351.3 -9.00001H1447L1447 252.875C1447 339.653 1376.65 410 1289.88 410L1170 410Z" fill="white"/>
<path opacity="0.22" d="M1227 410L1227 172.298C1227 72.1699 1308.17 -9.00001 1408.3 -9.00001H1436L1436 228.702C1436 328.83 1354.83 410 1254.7 410H1227Z" fill="white"/>
</g>
<path opacity="0.2" d="M1268 326L1232.99 318.024C1231.29 317.635 1229.94 319.47 1230.82 320.982L1247.75 349.992C1248.52 351.326 1247.56 353 1246.02 353H1211.26C1209.66 353 1208.7 354.788 1209.6 356.117L1222.9 375.883C1223.8 377.212 1222.84 379 1221.24 379H1189.66C1188.08 379 1187.13 380.75 1187.98 382.082L1195 393" stroke="white" stroke-width="3" stroke-linecap="round"/>
<circle opacity="0.5" r="21.5" transform="matrix(-1 0 0 1 1173 111)" stroke="white" stroke-width="3"/>
<circle opacity="0.5" r="8" transform="matrix(-1 0 0 1 1119.5 41.5)" stroke="white" stroke-width="3"/>
</g>
<defs>
<clipPath id="clip0_611_3001">
<rect width="1280" height="410" fill="white"/>
</clipPath>
</defs>
</svg>
