<?xml version="1.0" encoding="UTF-8"?>
<svg xmlns="http://www.w3.org/2000/svg" width="125" height="32" viewBox="0 0 125 32" fill="none">
  <path d="M23.0173 13.5002C25.4082 13.5002 25.9461 14.5387 25.9461 15.834C25.9461 17.2069 25.2954 18.1905 23.0272 18.1905C20.7735 18.1905 20.1221 17.2641 20.1221 15.834C20.1221 14.4267 20.8322 13.5002 23.0173 13.5002Z" fill="#F4F4F4"></path>
  <path d="M48.0027 13.5002C50.3935 13.5002 50.9314 14.5387 50.9314 15.834C50.9314 17.2069 50.28 18.1905 48.0126 18.1905C45.7596 18.1905 45.1074 17.2641 45.1074 15.834C45.1074 14.4267 45.8175 13.5002 48.0027 13.5002Z" fill="#F4F4F4"></path>
  <path fill-rule="evenodd" clip-rule="evenodd" d="M1.84863 29.3333V2.32153H122.67V29.3333H1.84863ZM59.4319 27.8095H121.146V3.84534H59.4319V27.8095ZM23.0282 20.4899C27.2728 20.4899 29.0572 18.6591 29.0572 15.7996C29.0572 12.8937 27.0473 11.1665 23.0282 11.1665C19.0709 11.1665 16.9879 13.0423 16.9879 15.7996C16.9879 18.9112 19.173 20.4899 23.0282 20.4899ZM8.27091 11.3722V20.3528H16.8378V17.9612H11.3703V11.3722H8.27091ZM38.645 20.3528L38.565 19.4827C37.5281 20.2226 36.2661 20.5788 34.9955 20.4899C33.0854 20.4899 31.4945 19.9177 30.6023 18.7627C30.0138 17.9194 29.7167 16.9071 29.7559 15.8796C29.7224 14.8737 30.0298 13.886 30.6282 13.0766C31.5311 11.9558 33.1677 11.2122 35.6042 11.2122C38.4073 11.2122 40.0545 12.0701 40.7631 13.5116C40.9152 13.8511 41.0045 14.2153 41.0267 14.5867H38.0614C37.9866 14.361 37.8476 14.1621 37.6614 14.0145C37.0707 13.6229 36.3653 13.4418 35.6591 13.5002C35.2449 13.45 34.8246 13.4882 34.4263 13.6125C34.0279 13.7368 33.6605 13.9442 33.3482 14.221C32.9937 14.7063 32.8272 15.3038 32.8797 15.9025C32.8385 16.4737 32.9916 17.0421 33.314 17.5154C33.629 17.809 34.0036 18.0313 34.4121 18.1676C34.8207 18.3037 35.2537 18.3506 35.682 18.3048C36.5325 18.374 37.3769 18.1116 38.0385 17.5726C38.1806 17.3949 38.2786 17.186 38.3242 16.9631H35.1334V15.0332H41.1044V20.3528H38.645ZM48.0141 20.4899C52.258 20.4899 54.0431 18.6591 54.0431 15.7996C54.0431 12.8937 52.0301 11.1665 48.0141 11.1665C44.0568 11.1665 41.9738 13.0423 41.9738 15.7996C41.9738 18.9112 44.1589 20.4899 48.0141 20.4899Z" fill="#F4F4F4"></path>
  <path d="M64.6533 20.3185V11.3379H66.8628V20.3185H64.6533Z" fill="#F4F4F4"></path>
  <path d="M78.2092 16.5661C77.6492 17.2983 76.6854 17.6327 75.3269 17.6411C75.0405 17.6411 71.2424 17.6297 71.2424 17.6297V20.3184H69.0801V11.3379H75.3277C75.8284 11.2849 76.3349 11.338 76.8134 11.4937C77.2927 11.6494 77.733 11.9042 78.1071 12.2415C78.6008 12.8847 78.8408 13.6867 78.7822 14.4952C78.8325 15.2306 78.6306 15.9612 78.2092 16.5661ZM76.4363 13.6381C76.2077 13.2952 75.7147 13.1047 74.8805 13.1047H71.2309V15.8384H74.8568C75.749 15.8384 76.2191 15.6556 76.4363 15.3005C76.565 15.0504 76.6206 14.7687 76.5963 14.4884C76.6153 14.1959 76.5605 13.9034 76.4363 13.6381Z" fill="#F4F4F4"></path>
  <path d="M85.1536 20.4557C81.0805 20.4557 79.834 18.9319 79.834 17.424H82.1448C82.1448 18.1677 83.1627 18.7284 85.2565 18.7284C87.338 18.7284 87.8873 18.3619 87.8873 17.7669C87.8873 17.1033 87.4759 16.8976 85.5422 16.6804C85.1612 16.6461 84.1243 16.5204 83.7349 16.4633C80.9921 16.1539 79.9361 15.3418 79.9361 13.8888C79.9361 12.3559 81.4812 11.2008 84.8328 11.2008C88.4709 11.2008 89.8667 12.6309 89.8667 14.1181H87.581C87.581 13.3631 86.7231 12.928 84.698 12.928C82.6157 12.928 82.17 13.2138 82.17 13.7745C82.17 14.3581 82.6271 14.541 84.8367 14.8039C85.3403 14.8732 86.461 14.9989 86.7696 15.0324C89.1041 15.2724 90.1563 16.1189 90.1563 17.6176C90.1525 19.4027 88.5509 20.4557 85.1536 20.4557Z" fill="#F4F4F4"></path>
  <path d="M96.6627 20.4442C93.6776 20.4442 91.7324 19.2655 91.7324 16.787V11.3379H93.9168V16.8175C93.9168 17.9505 94.844 18.7047 96.7541 18.7047C98.4814 18.7047 99.5115 17.9962 99.5115 16.8175V11.3379H101.674V16.9905C101.674 19.2434 99.8658 20.4442 96.6627 20.4442Z" fill="#F4F4F4"></path>
  <path d="M113.514 20.3185V14.3238L110.711 20.3185H108.584L105.861 14.3238V20.3185H103.804V11.3379H106.591L109.68 18.179L112.837 11.3379H115.58V20.3185H113.514Z" fill="#F4F4F4"></path>
</svg>
