<?xml version="1.0" encoding="UTF-8"?>
<svg xmlns="http://www.w3.org/2000/svg" width="121" height="32" viewBox="0 0 121 32" fill="none">
  <path d="M35.209 10.2949H38.1438V22.1806H35.209V10.2949ZM39.3141 17.7098C39.3141 14.7658 41.1427 13.0012 43.8856 13.0012C46.6284 13.0012 48.457 14.7658 48.457 17.7098C48.457 20.6538 46.6924 22.4366 43.8856 22.4366C41.0787 22.4366 39.3141 20.7178 39.3141 17.7098ZM45.5496 17.7098C45.5496 16.0915 44.9187 15.1406 43.913 15.1406C42.9073 15.1406 42.2856 16.0549 42.2856 17.7098C42.2856 19.3646 42.9073 20.2698 43.913 20.2698C44.9187 20.2698 45.5678 19.3646 45.5678 17.7189L45.5496 17.7098ZM49.6273 22.7932H52.4616C52.5906 23.0983 52.8159 23.3529 53.1032 23.5179C53.3905 23.6831 53.7238 23.7496 54.0524 23.7075C55.177 23.7075 55.7621 23.104 55.7621 22.208V20.5623H55.7713C55.5291 21.0748 55.1374 21.5019 54.6479 21.7875C54.1583 22.0731 53.5937 22.2038 53.0284 22.1623C50.8798 22.1623 49.4536 20.5258 49.4536 17.7098C49.4536 14.8938 50.8158 13.1383 53.1107 13.1383C53.6904 13.1073 54.2656 13.2568 54.7568 13.5663C55.248 13.8758 55.6312 14.33 55.8536 14.8663H55.7713V13.2115H58.6787V22.1166C58.6787 24.2652 56.777 25.6092 53.9793 25.6092C51.4376 25.6 49.8101 24.4389 49.6456 22.8023L49.6273 22.7932ZM55.7713 17.7098C55.7713 16.2743 55.113 15.3692 54.0707 15.3692C53.0284 15.3692 52.3884 16.2835 52.3884 17.7098C52.3884 19.136 53.0193 19.9772 54.0707 19.9772C55.1221 19.9772 55.7713 19.2 55.7713 17.7098ZM59.8398 17.7098C59.8398 14.7658 61.6684 13.0012 64.4113 13.0012C67.1541 13.0012 68.9827 14.7658 68.9827 17.7098C68.9827 20.6538 67.209 22.4366 64.4113 22.4366C61.6136 22.4366 59.8581 20.7178 59.8581 17.7098H59.8398ZM66.0753 17.7098C66.0753 16.0915 65.4353 15.1406 64.4387 15.1406C63.4421 15.1406 62.8113 16.0549 62.8113 17.7098C62.8113 19.3646 63.433 20.2698 64.4387 20.2698C65.4444 20.2698 66.0936 19.3646 66.0936 17.7189L66.0753 17.7098ZM70.1713 11.0446C70.1585 10.7456 70.2355 10.4497 70.3923 10.1949C70.5491 9.93998 70.7785 9.73792 71.0512 9.61459C71.3238 9.49116 71.6271 9.45221 71.922 9.50268C72.217 9.55305 72.4901 9.69056 72.7062 9.89747C72.9224 10.1045 73.0717 10.3712 73.1349 10.6637C73.1981 10.9562 73.1724 11.2609 73.0611 11.5386C72.9497 11.8164 72.7578 12.0544 72.51 12.2222C72.2622 12.39 71.9699 12.4798 71.6707 12.48C71.4795 12.4849 71.2892 12.4517 71.1109 12.3825C70.9326 12.3132 70.7698 12.2091 70.632 12.0765C70.4942 11.9438 70.3841 11.7851 70.3082 11.6095C70.2323 11.4339 70.1919 11.245 70.1896 11.0538L70.1713 11.0446ZM70.1713 13.2023H73.1427V22.2172H70.217L70.1713 13.2023ZM83.8307 17.7098C83.8307 20.6446 82.5141 22.3452 80.2741 22.3452C79.7007 22.3806 79.1302 22.239 78.6397 21.9399C78.1491 21.6406 77.7623 21.1981 77.5313 20.672H77.4764V25.1155H74.5416V13.2298H77.4581V14.8389H77.513C77.7361 14.3025 78.1192 13.8478 78.6099 13.537C79.1008 13.2261 79.6755 13.0742 80.2558 13.1018C82.5598 13.0835 83.8856 14.7749 83.8856 17.7189L83.8307 17.7098ZM80.841 17.7098C80.841 16.2835 80.1736 15.36 79.1404 15.36C78.1073 15.36 77.4581 16.2743 77.449 17.7098C77.4398 19.1452 78.1073 20.0503 79.1404 20.0503C80.1736 20.0503 80.8958 19.2 80.8958 17.7189L80.841 17.7098ZM88.841 12.992C91.3004 12.992 92.8273 14.1532 92.8456 16.0183H90.1667C90.1667 15.3692 89.6273 14.9669 88.8227 14.9669C88.0181 14.9669 87.6341 15.2778 87.6341 15.744C87.6341 16.2103 87.9724 16.3566 88.649 16.4938L90.5324 16.8778C92.361 17.2618 93.0924 17.9932 93.0924 19.3555C93.0924 21.184 91.401 22.4275 88.8867 22.4275C86.3724 22.4275 84.7358 21.2206 84.617 19.3829H87.4604C87.5427 20.0503 88.073 20.4435 88.9324 20.4435C89.7918 20.4435 90.1941 20.1692 90.1941 19.6846C90.1941 19.2 89.9198 19.1178 89.2158 18.9715L87.5153 18.6149C85.7507 18.24 84.8273 17.3166 84.8273 15.936C84.8821 14.144 86.4181 13.0012 88.8958 13.0012L88.841 12.992ZM102.921 22.208H100.078V20.5166H100.023C99.8636 21.0808 99.5171 21.5739 99.0398 21.9146C98.5626 22.2553 97.9838 22.4233 97.3987 22.3909C96.9571 22.4053 96.5164 22.3261 96.1077 22.1584C95.699 21.9908 95.3297 21.7386 95.0252 21.4183C94.7198 21.0979 94.4867 20.7168 94.3395 20.2998C94.1923 19.8829 94.1347 19.4395 94.1713 18.9989V13.2115H97.1061V18.368C97.1061 19.4286 97.6638 20.0046 98.5781 20.0046C98.793 20.003 99.0042 19.9553 99.1989 19.865C99.3937 19.7746 99.5665 19.6435 99.7054 19.4806C99.8453 19.3176 99.9486 19.1266 100.008 18.9206C100.067 18.7144 100.081 18.498 100.05 18.2858V13.2115H102.976L102.921 22.208ZM104.338 13.2023H107.191V14.9395H107.255C107.412 14.383 107.75 13.8944 108.215 13.5503C108.68 13.2063 109.246 13.026 109.824 13.0378C110.404 12.9873 110.983 13.1552 111.446 13.5085C111.909 13.8619 112.224 14.3755 112.329 14.9486H112.457C112.64 14.3723 113.007 13.8726 113.504 13.5271C113.999 13.1815 114.596 13.0095 115.2 13.0378C115.601 13.0225 116.002 13.0922 116.374 13.2422C116.747 13.3921 117.083 13.6192 117.362 13.9083C117.641 14.1974 117.855 14.5422 117.991 14.92C118.128 15.2978 118.183 15.7001 118.153 16.1006V22.2172H115.2V16.8503C115.2 15.936 114.77 15.424 113.938 15.424C113.753 15.421 113.571 15.458 113.401 15.5322C113.232 15.6065 113.082 15.7165 112.96 15.8546C112.837 15.9927 112.746 16.1556 112.692 16.3322C112.639 16.5088 112.624 16.6949 112.649 16.8778V22.2172H109.851V16.8229C109.851 15.9086 109.403 15.424 108.599 15.424C108.412 15.4226 108.228 15.461 108.057 15.5367C107.886 15.6125 107.735 15.7238 107.61 15.8632C107.487 16.0026 107.395 16.1669 107.34 16.345C107.284 16.5232 107.267 16.7111 107.291 16.896V22.2172H104.356L104.338 13.2023Z" fill="#F4F4F4"></path>
  <path d="M29.4031 11.072C29.4032 9.25233 28.8537 7.47501 27.8266 5.9729C26.7995 4.47078 25.3426 3.31389 23.6469 2.65377C21.9511 1.99365 20.0955 1.86108 18.3232 2.27341C16.5507 2.68575 14.9442 3.62377 13.714 4.9646H2.30371V29.0469H26.3951V17.792C27.3407 16.9463 28.0973 15.9107 28.6156 14.7528C29.134 13.5948 29.4023 12.3407 29.4031 11.072ZM24.7677 11.072C24.7695 11.944 24.5126 12.7969 24.0295 13.5229C23.5463 14.2487 22.8588 14.815 22.0536 15.1499C21.2485 15.4849 20.3622 15.5735 19.5067 15.4045C18.6513 15.2355 17.8652 14.8165 17.248 14.2005C16.6307 13.5846 16.2102 12.7994 16.0394 11.9443C15.8686 11.0892 15.9554 10.2026 16.2886 9.39688C16.6219 8.59108 17.1867 7.90229 17.9116 7.41765C18.6365 6.93301 19.4889 6.67433 20.3608 6.67432C21.528 6.67432 22.6476 7.13736 23.4737 7.96182C24.2999 8.78629 24.7653 9.90485 24.7677 11.072ZM21.7597 24.4115H6.93914V9.60003H11.4557C11.3685 10.086 11.3226 10.5784 11.3185 11.072C11.321 13.4695 12.2744 15.768 13.9697 17.4633C15.6649 19.1584 17.9634 20.1119 20.3608 20.1143C20.8296 20.1118 21.2973 20.0721 21.7597 19.9955V24.4115Z" fill="#F4F4F4"></path>
</svg>
