<?xml version="1.0" encoding="UTF-8"?>
<svg xmlns="http://www.w3.org/2000/svg" width="119" height="30" viewBox="0 0 119 30" fill="none">
  <path d="M13.6321 5.86768V2.11768H1.80859V27.8824H13.6321V24.1324C11.2101 24.1324 8.88718 23.1702 7.17457 21.4575C5.46192 19.7449 4.49977 17.4221 4.49977 15C4.49977 12.578 5.46192 10.2551 7.17457 8.54248C8.88718 6.82984 11.2101 5.86768 13.6321 5.86768Z" fill="#F4F4F4"></path>
  <path d="M13.6328 5.86768V24.1324C16.0549 24.1324 18.3778 23.1702 20.0904 21.4575C21.803 19.7449 22.7652 17.4221 22.7652 15C22.7652 12.578 21.803 10.2551 20.0904 8.54248C18.3778 6.82984 16.0549 5.86768 13.6328 5.86768Z" fill="#F4F4F4"></path>
  <path d="M29.4004 8.16174H32.0474V20.9117H29.4004V8.16174Z" fill="#F4F4F4"></path>
  <path d="M33.5297 16.5441C33.5297 15.6268 33.8021 14.7302 34.3123 13.9678C34.8224 13.2055 35.5475 12.6117 36.3955 12.2619C37.2435 11.9121 38.1763 11.8219 39.0756 12.0028C39.9749 12.1837 40.8002 12.6275 41.447 13.278C42.0937 13.9286 42.5329 14.7564 42.7087 15.6567C42.8843 16.5571 42.7889 17.4893 42.4342 18.3353C42.0794 19.1812 41.4817 19.9029 40.7164 20.4086C39.9511 20.9145 39.0529 21.1817 38.1356 21.1765C37.5272 21.1812 36.9239 21.0645 36.3613 20.833C35.7986 20.6015 35.2877 20.2601 34.8587 19.8287C34.4297 19.3972 34.0912 18.8844 33.863 18.3204C33.6348 17.7564 33.5215 17.1525 33.5297 16.5441ZM40.165 16.5441C40.1546 16.1486 40.0278 15.765 39.8005 15.4413C39.5732 15.1174 39.2556 14.8678 38.8871 14.7236C38.5187 14.5795 38.116 14.5471 37.7294 14.6306C37.3426 14.7141 36.9892 14.9097 36.7131 15.1931C36.437 15.4765 36.2505 15.8349 36.1771 16.2236C36.1037 16.6124 36.1465 17.0141 36.3002 17.3786C36.4539 17.7431 36.7117 18.0544 37.0413 18.2731C37.3709 18.4919 37.7576 18.6086 38.1532 18.6088C38.4226 18.6141 38.6902 18.5637 38.9392 18.4609C39.1882 18.3581 39.4132 18.205 39.6004 18.0112C39.7875 17.8174 39.9327 17.5871 40.0268 17.3347C40.121 17.0823 40.162 16.8131 40.1474 16.5441H40.165Z" fill="#F4F4F4"></path>
  <path d="M53.2149 12.1765V20.4794C53.2149 23.4088 50.9208 24.6529 48.6002 24.6529C47.7816 24.7201 46.9606 24.5575 46.2296 24.1834C45.4984 23.8092 44.8863 23.2384 44.4619 22.5353L46.6943 21.2471C46.8752 21.6118 47.1629 21.9127 47.5192 22.1097C47.8755 22.3068 48.2833 22.3906 48.6884 22.35C48.9465 22.3818 49.2084 22.3562 49.4554 22.275C49.7024 22.1937 49.9284 22.059 50.1172 21.8802C50.3061 21.7015 50.4531 21.4833 50.5478 21.2411C50.6425 20.9989 50.6824 20.7388 50.6649 20.4794V19.6765C50.3569 20.05 49.966 20.3464 49.5234 20.5425C49.0807 20.7386 48.5985 20.8287 48.1149 20.8059C46.9448 20.8059 45.8227 20.3411 44.9953 19.5137C44.1679 18.6864 43.7031 17.5642 43.7031 16.3941C43.7031 15.224 44.1679 14.1019 44.9953 13.2746C45.8227 12.4472 46.9448 11.9824 48.1149 11.9824C48.5985 11.9595 49.0807 12.0497 49.5234 12.2457C49.966 12.4418 50.3569 12.7383 50.6649 13.1118V12.2294L53.2149 12.1765ZM50.6649 16.3676C50.6824 15.9455 50.5734 15.5277 50.3517 15.1681C50.1299 14.8084 49.8057 14.5234 49.4206 14.3494C49.0355 14.1755 48.6073 14.1208 48.1909 14.1923C47.7745 14.2638 47.3889 14.4581 47.0839 14.7505C46.7788 15.0428 46.5682 15.4197 46.4791 15.8328C46.39 16.2458 46.4264 16.6759 46.5837 17.0681C46.7412 17.4602 47.0122 17.7963 47.3621 18.0331C47.712 18.2699 48.1248 18.3967 48.5472 18.3971C48.823 18.4169 49.0998 18.3787 49.3597 18.285C49.6197 18.1912 49.8573 18.0439 50.0568 17.8526C50.2564 17.6614 50.4136 17.4304 50.5183 17.1746C50.6231 16.9189 50.673 16.6439 50.6649 16.3676Z" fill="#F4F4F4"></path>
  <path d="M54.7064 16.5441C54.7064 15.6275 54.9783 14.7316 55.4877 13.9696C55.9971 13.2076 56.721 12.6138 57.568 12.2636C58.415 11.9132 59.3468 11.8219 60.2457 12.0014C61.1445 12.1809 61.9699 12.6229 62.6174 13.2716C63.2649 13.9204 63.7054 14.7467 63.8831 15.6458C64.0609 16.545 63.9679 17.4767 63.6159 18.3229C63.264 19.1693 62.6688 19.8921 61.9059 20.4001C61.1429 20.9081 60.2465 21.1782 59.3299 21.1765C58.7204 21.1824 58.1157 21.0665 57.5515 20.8357C56.9873 20.6049 56.4749 20.2638 56.0443 19.8323C55.6136 19.4008 55.2735 18.8877 55.0437 18.3231C54.814 17.7585 54.6993 17.1536 54.7064 16.5441ZM61.3417 16.5441C61.3312 16.1483 61.2042 15.7643 60.9765 15.4403C60.7489 15.1164 60.4306 14.8668 60.0617 14.7228C59.6928 14.5789 59.2897 14.5471 58.9027 14.6313C58.5158 14.7155 58.1624 14.9121 57.8866 15.1963C57.6109 15.4805 57.4252 15.8398 57.3528 16.2291C57.2804 16.6184 57.3244 17.0204 57.4794 17.3847C57.6344 17.7491 57.8936 18.0596 58.2244 18.2774C58.5551 18.4951 58.9427 18.6104 59.3387 18.6088C59.6081 18.6141 59.8756 18.5637 60.1246 18.4608C60.3736 18.3581 60.5987 18.205 60.7859 18.0112C60.973 17.8174 61.1182 17.5871 61.2123 17.3347C61.3064 17.0823 61.3475 16.8131 61.3328 16.5441H61.3417Z" fill="#F4F4F4"></path>
  <path d="M65.1797 9.83829C65.1797 9.5277 65.2718 9.224 65.4444 8.96573C65.617 8.70743 65.8623 8.50613 66.1492 8.38725C66.4362 8.26838 66.752 8.23728 67.0567 8.29788C67.3613 8.35848 67.6412 8.50806 67.8609 8.72772C68.0805 8.94738 68.2301 9.22726 68.2907 9.53185C68.3513 9.83653 68.3202 10.1523 68.2013 10.4393C68.0825 10.7263 67.8811 10.9716 67.6228 11.1442C67.3646 11.3168 67.061 11.4089 66.7503 11.4089C66.3351 11.4043 65.9383 11.2373 65.6448 10.9438C65.3512 10.6502 65.1843 10.2534 65.1797 9.83829ZM65.4356 12.1765H68.0826V20.9118H65.4356V12.1765Z" fill="#F4F4F4"></path>
  <path d="M79.4121 16.5441C79.4418 17.125 79.3563 17.7062 79.1605 18.2539C78.9648 18.8017 78.6626 19.3053 78.2714 19.7358C77.8802 20.1664 77.4078 20.5153 76.8812 20.7625C76.3547 21.0098 75.7844 21.1504 75.2033 21.1765C74.7102 21.2093 74.2159 21.1303 73.7576 20.9455C73.2993 20.7605 72.8886 20.4745 72.5562 20.1088V24.4235H69.9092V12.1765H72.5562V12.997C72.8891 12.6324 73.3001 12.3477 73.7584 12.1644C74.2168 11.9809 74.7108 11.9036 75.2033 11.9382C75.7821 11.9642 76.3501 12.1041 76.8748 12.3497C77.3996 12.5952 77.8708 12.9418 78.2616 13.3695C78.6525 13.7972 78.9552 14.2976 79.1526 14.8424C79.35 15.3871 79.4382 15.9653 79.4121 16.5441ZM76.7651 16.5441C76.7546 16.1342 76.6234 15.7367 76.388 15.4011C76.1526 15.0655 75.8233 14.8068 75.4415 14.6576C75.0597 14.5083 74.6424 14.4752 74.2417 14.5621C73.8411 14.649 73.4751 14.8523 73.1895 15.1464C72.9039 15.4405 72.7114 15.8123 72.6364 16.2153C72.5612 16.6183 72.6066 17.0345 72.767 17.4118C72.9274 17.789 73.1956 18.1105 73.5379 18.3361C73.8803 18.5616 74.2816 18.681 74.6915 18.6794C74.9723 18.6913 75.2524 18.6437 75.5135 18.5398C75.7747 18.4359 76.0109 18.2779 76.2067 18.0763C76.4025 17.8747 76.5534 17.6339 76.6496 17.3699C76.7459 17.1058 76.7852 16.8244 76.7651 16.5441Z" fill="#F4F4F4"></path>
  <path d="M87.4674 18.2912C87.4674 20.303 85.7027 21.1589 83.8321 21.1589C83.0691 21.2275 82.3031 21.0658 81.6331 20.6946C80.963 20.3234 80.4197 19.7597 80.0732 19.0765L82.3497 17.7883C82.4399 18.1031 82.6354 18.3774 82.9037 18.5654C83.1719 18.7533 83.4965 18.8434 83.8232 18.8206C84.4497 18.8206 84.7674 18.6265 84.7674 18.2736C84.7674 17.3118 80.4703 17.8236 80.4703 14.7971C80.4703 12.8912 82.0762 11.9383 83.8938 11.9383C84.5847 11.9073 85.2712 12.0641 85.8801 12.3919C86.4891 12.7197 86.9979 13.2063 87.3527 13.8001L85.0762 15.0001C84.9756 14.7724 84.8113 14.5788 84.6031 14.4426C84.3947 14.3063 84.1515 14.2334 83.9027 14.2324C83.4438 14.2324 83.1703 14.4089 83.1703 14.7177C83.1703 15.7236 87.4674 15.0618 87.4674 18.2912Z" fill="#F4F4F4"></path>
  <path d="M97.0592 12.1765V20.9118H94.4122V20.0912C94.1113 20.4545 93.7292 20.7419 93.2977 20.9304C92.8654 21.119 92.3951 21.2032 91.9239 21.1765C90.1592 21.1765 88.6504 19.9147 88.6504 17.5589V12.1765H91.2974V17.1618C91.2763 17.3702 91.301 17.5807 91.3698 17.7787C91.4386 17.9766 91.5489 18.1573 91.6936 18.3083C91.8392 18.4593 92.0157 18.577 92.2107 18.6533C92.4057 18.7296 92.6148 18.7626 92.8239 18.75C93.7769 18.75 94.4474 18.1853 94.4474 16.9853V12.1765H97.0592Z" fill="#F4F4F4"></path>
  <path d="M112.059 15.547V20.9117H109.412V15.7764C109.412 14.8941 108.998 14.347 108.159 14.347C107.321 14.347 106.792 14.9558 106.792 15.9882V20.9117H104.145V15.7764C104.145 14.8941 103.73 14.347 102.892 14.347C102.053 14.347 101.524 14.9558 101.524 15.9882V20.9117H98.877V12.1764H101.524V12.9794C101.798 12.6247 102.156 12.3437 102.566 12.1619C102.975 11.9802 103.425 11.9032 103.871 11.9382C104.318 11.9148 104.765 12.0083 105.165 12.2094C105.566 12.4105 105.908 12.7124 106.156 13.0852C106.448 12.6956 106.832 12.3861 107.275 12.1855C107.717 11.9849 108.204 11.8998 108.689 11.9382C110.753 11.9382 112.059 13.3676 112.059 15.547Z" fill="#F4F4F4"></path>
</svg>
