<?xml version="1.0" encoding="UTF-8"?>
<svg xmlns="http://www.w3.org/2000/svg" width="96" height="24" viewBox="0 0 96 24" fill="none">
  <path d="M2.58789 22.26H23.1079V1.73999H2.58789V22.26ZM19.1583 10.0256H14.8223V5.68959H19.1583V10.0256ZM6.53669 5.68959H10.8751V13.9744H19.1583V18.3104H6.53669V5.68959ZM36.4703 1.73999C34.441 1.73999 32.4573 2.34173 30.7701 3.46912C29.0829 4.5965 27.7678 6.19889 26.9913 8.07367C26.2147 9.94847 26.0116 12.0114 26.4074 14.0016C26.8033 15.9918 27.7805 17.82 29.2153 19.2549C30.6502 20.6898 32.4784 21.667 34.4686 22.0629C36.4589 22.4587 38.5218 22.2556 40.3966 21.479C42.2714 20.7025 43.8737 19.3874 45.0012 17.7002C46.1285 16.0129 46.7303 14.0292 46.7303 12C46.7271 9.27983 45.6451 6.67202 43.7217 4.74859C41.7982 2.82515 39.1905 1.74317 36.4703 1.73999ZM36.4703 18.3104C35.2222 18.3104 34.0021 17.9403 32.9644 17.2469C31.9267 16.5535 31.1178 15.568 30.6402 14.4149C30.1626 13.2618 30.0377 11.993 30.2811 10.7689C30.5246 9.54479 31.1257 8.42039 32.0081 7.53786C32.8907 6.65534 34.0151 6.05433 35.2392 5.81085C36.4633 5.56736 37.7321 5.69233 38.8852 6.16994C40.0382 6.64756 41.0238 7.45638 41.7172 8.49415C42.4106 9.53183 42.7807 10.7519 42.7807 12C42.7781 13.6729 42.1125 15.2765 40.9296 16.4594C39.7467 17.6422 38.1431 18.3078 36.4703 18.3104ZM83.4455 1.73999C81.4159 1.73984 79.4325 2.34144 77.7451 3.46873C76.0577 4.59601 74.7426 6.19835 73.9659 8.07311C73.1893 9.94783 72.9859 12.0109 73.3817 14.0011C73.7775 15.9914 74.7546 17.8197 76.1895 19.2546C77.6243 20.6896 79.4525 21.6669 81.4431 22.0628C83.4327 22.4587 85.4959 22.2556 87.3711 21.4791C89.2455 20.7026 90.8479 19.3875 91.9751 17.7002C93.1031 16.013 93.7047 14.0293 93.7047 12C93.7015 9.27999 92.6199 6.67228 90.6967 4.74887C88.7735 2.82545 86.1655 1.74338 83.4455 1.73999ZM83.4455 18.3104C82.1975 18.3106 80.9775 17.9406 79.9394 17.2473C78.9016 16.554 78.0926 15.5685 77.6149 14.4154C77.1371 13.2624 77.0121 11.9935 77.2554 10.7694C77.4989 9.54527 78.0998 8.42079 78.9823 7.53815C79.8648 6.65554 80.9895 6.05445 82.2135 5.8109C83.4375 5.56735 84.7063 5.69227 85.8591 6.16987C87.0127 6.64746 87.9983 7.45628 88.6919 8.49407C89.3847 9.53183 89.7551 10.7519 89.7551 12C89.7527 13.6727 89.0871 15.2762 87.9039 16.459C86.7215 17.6419 85.1183 18.3077 83.4455 18.3104ZM59.9575 1.73999C57.9282 1.73999 55.9445 2.34173 54.2573 3.46912C52.5701 4.5965 51.255 6.19889 50.4785 8.07367C49.7019 9.94847 49.4988 12.0114 49.8946 14.0016C50.2905 15.9918 51.2677 17.82 52.7025 19.2549C54.1374 20.6898 55.9656 21.667 57.9558 22.0629C59.9461 22.4587 62.009 22.2556 63.8838 21.479C65.7586 20.7025 67.3609 19.3874 68.4884 17.7002C69.6157 16.0129 70.2175 14.0292 70.2175 12C70.2143 9.27983 69.1323 6.67202 67.2089 4.74859C65.2854 2.82515 62.6777 1.74317 59.9575 1.73999ZM59.9575 18.3104C58.7946 18.311 57.6543 17.9902 56.6622 17.3836C55.6702 16.777 54.865 15.9081 54.3357 14.8727C53.8064 13.8374 53.5734 12.6758 53.6625 11.5165C53.7516 10.357 54.1593 9.24479 54.8406 8.30247C55.522 7.3602 56.4505 6.62448 57.5235 6.17656C58.5966 5.72863 59.7726 5.58593 60.9217 5.76418C62.0708 5.94245 63.1482 6.43473 64.0352 7.18673C64.9221 7.93871 65.5841 8.92119 65.9479 10.0256H59.9575V13.9744H65.9479C65.5312 15.2346 64.7283 16.3318 63.653 17.11C62.5778 17.8883 61.2849 18.3082 59.9575 18.3104Z" fill="#F4F4F4"></path>
</svg>
