<?xml version="1.0" encoding="UTF-8"?>
<svg xmlns="http://www.w3.org/2000/svg" width="1280" height="410" viewBox="0 0 1280 410" fill="none">
  <g clip-path="url(#clip0_779_845)">
    <g opacity="0.6">
      <rect x="117.255" y="8.27734" width="9.7448" height="9.33876" fill="#F5C4A5"></rect>
      <rect x="117.255" y="43.5586" width="9.7448" height="9.33876" fill="#F5C4A5"></rect>
      <rect x="117.255" y="78.8398" width="9.7448" height="9.33876" fill="#F5C4A5"></rect>
      <rect x="117.255" y="114.119" width="9.7448" height="9.33876" fill="#F5C4A5"></rect>
      <rect x="6.81348" y="8.27734" width="9.7448" height="9.33876" fill="#F5C4A5"></rect>
      <rect x="6.81348" y="43.5586" width="9.7448" height="9.33876" fill="#F5C4A5"></rect>
      <rect x="6.81348" y="78.8398" width="9.7448" height="9.33876" fill="#F5C4A5"></rect>
      <rect x="6.81348" y="114.119" width="9.7448" height="9.33876" fill="#F5C4A5"></rect>
      <rect x="43.627" y="8.27734" width="9.7448" height="9.33876" fill="#F5C4A5"></rect>
      <rect x="43.627" y="43.5586" width="9.7448" height="9.33876" fill="#F5C4A5"></rect>
      <rect x="43.627" y="78.8398" width="9.7448" height="9.33876" fill="#F5C4A5"></rect>
      <rect x="43.627" y="114.119" width="9.7448" height="9.33876" fill="#F5C4A5"></rect>
      <rect x="80.4414" y="8.27734" width="9.7448" height="9.33876" fill="#F5C4A5"></rect>
      <rect x="80.4414" y="43.5586" width="9.7448" height="9.33876" fill="#F5C4A5"></rect>
      <rect x="80.4414" y="78.8398" width="9.7448" height="9.33876" fill="#F5C4A5"></rect>
      <rect x="80.4414" y="114.119" width="9.7448" height="9.33876" fill="#F5C4A5"></rect>
    </g>
    <g opacity="0.6">
      <rect x="1156" y="8.27734" width="9.7448" height="9.33876" fill="#F5C4A5"></rect>
      <rect x="1156" y="43.5586" width="9.7448" height="9.33876" fill="#F5C4A5"></rect>
      <rect x="1156" y="78.8398" width="9.7448" height="9.33876" fill="#F5C4A5"></rect>
      <rect x="1156" y="114.119" width="9.7448" height="9.33876" fill="#F5C4A5"></rect>
      <rect x="1192.81" y="8.27734" width="9.7448" height="9.33876" fill="#F5C4A5"></rect>
      <rect x="1192.81" y="43.5586" width="9.7448" height="9.33876" fill="#F5C4A5"></rect>
      <rect x="1192.81" y="78.8398" width="9.7448" height="9.33876" fill="#F5C4A5"></rect>
      <rect x="1192.81" y="114.119" width="9.7448" height="9.33876" fill="#F5C4A5"></rect>
      <rect x="1229.63" y="8.27734" width="9.7448" height="9.33876" fill="#F5C4A5"></rect>
      <rect x="1229.63" y="43.5586" width="9.7448" height="9.33876" fill="#F5C4A5"></rect>
      <rect x="1229.63" y="78.8398" width="9.7448" height="9.33876" fill="#F5C4A5"></rect>
      <rect x="1229.63" y="114.119" width="9.7448" height="9.33876" fill="#F5C4A5"></rect>
      <rect x="1266.44" y="8.27734" width="9.7448" height="9.33876" fill="#F5C4A5"></rect>
      <rect x="1266.44" y="43.5586" width="9.7448" height="9.33876" fill="#F5C4A5"></rect>
      <rect x="1266.44" y="78.8398" width="9.7448" height="9.33876" fill="#F5C4A5"></rect>
      <rect x="1266.44" y="114.119" width="9.7448" height="9.33876" fill="#F5C4A5"></rect>
    </g>
  </g>
  <defs>
    <clipPath id="clip0_779_845">
      <rect width="1280" height="410" fill="white"></rect>
    </clipPath>
  </defs>
</svg>
