<?xml version="1.0" encoding="UTF-8"?>
<svg xmlns="http://www.w3.org/2000/svg" width="1280" height="410" viewBox="0 0 1280 410" fill="none">
  <g clip-path="url(#clip0_778_925)">
    <g opacity="0.6">
      <rect x="37" y="166" width="7.88276" height="7.55431" fill="#F5C4A5"></rect>
      <rect x="37" y="194.537" width="7.88276" height="7.55431" fill="#F5C4A5"></rect>
      <rect x="37" y="223.076" width="7.88276" height="7.55431" fill="#F5C4A5"></rect>
      <rect x="37" y="251.615" width="7.88276" height="7.55431" fill="#F5C4A5"></rect>
      <rect x="37" y="280.154" width="7.88276" height="7.55431" fill="#F5C4A5"></rect>
      <rect x="156.117" y="166" width="7.88276" height="7.55431" fill="#F5C4A5"></rect>
      <rect x="156.117" y="194.537" width="7.88276" height="7.55431" fill="#F5C4A5"></rect>
      <rect x="156.117" y="223.076" width="7.88276" height="7.55431" fill="#F5C4A5"></rect>
      <rect x="156.117" y="251.615" width="7.88276" height="7.55431" fill="#F5C4A5"></rect>
      <rect x="156.117" y="280.154" width="7.88276" height="7.55431" fill="#F5C4A5"></rect>
      <rect x="66.7793" y="166" width="7.88276" height="7.55431" fill="#F5C4A5"></rect>
      <rect x="66.7793" y="194.537" width="7.88276" height="7.55431" fill="#F5C4A5"></rect>
      <rect x="66.7793" y="223.076" width="7.88276" height="7.55431" fill="#F5C4A5"></rect>
      <rect x="66.7793" y="251.615" width="7.88276" height="7.55431" fill="#F5C4A5"></rect>
      <rect x="66.7793" y="280.154" width="7.88276" height="7.55431" fill="#F5C4A5"></rect>
      <rect x="96.5586" y="166" width="7.88276" height="7.55431" fill="#F5C4A5"></rect>
      <rect x="96.5586" y="194.537" width="7.88276" height="7.55431" fill="#F5C4A5"></rect>
      <rect x="96.5586" y="223.076" width="7.88276" height="7.55431" fill="#F5C4A5"></rect>
      <rect x="96.5586" y="251.615" width="7.88276" height="7.55431" fill="#F5C4A5"></rect>
      <rect x="96.5586" y="280.154" width="7.88276" height="7.55431" fill="#F5C4A5"></rect>
      <rect x="126.338" y="166" width="7.88276" height="7.55431" fill="#F5C4A5"></rect>
      <rect x="126.338" y="194.537" width="7.88276" height="7.55431" fill="#F5C4A5"></rect>
      <rect x="126.338" y="223.076" width="7.88276" height="7.55431" fill="#F5C4A5"></rect>
      <rect x="126.338" y="251.615" width="7.88276" height="7.55431" fill="#F5C4A5"></rect>
      <rect x="126.338" y="280.154" width="7.88276" height="7.55431" fill="#F5C4A5"></rect>
    </g>
    <path opacity="0.3" d="M82.1623 111.08L71.6245 61.201C71.1109 58.7699 67.9434 58.124 66.519 60.16L39.1798 99.2353C37.9233 101.031 35.1923 100.787 34.2742 98.7969L13.5979 53.9774C12.6454 51.9126 9.77341 51.7488 8.59236 53.692L-8.98025 82.6036C-10.1613 84.5467 -13.0332 84.383 -13.9858 82.3182L-32.7698 41.6004C-33.711 39.5602 -36.5365 39.3692 -37.7437 41.2642L-47.6466 56.8087" stroke="#F5C4A5" stroke-width="4.25986" stroke-linecap="round"></path>
    <path opacity="0.3" d="M191.048 349.617L163.387 326.446C162.039 325.317 159.993 326.341 160.09 328.097L161.938 361.801C162.023 363.35 160.395 364.407 159.014 363.7L127.919 347.776C126.486 347.042 124.816 348.205 125.007 349.804L127.853 373.581C128.044 375.179 126.373 376.342 124.941 375.609L96.6911 361.142C95.2756 360.417 93.6188 361.545 93.7745 363.127L95.0514 376.11" stroke="#F5C4A5" stroke-width="3.01511" stroke-linecap="round"></path>
    <g opacity="0.6">
      <rect width="7.88276" height="7.55431" transform="matrix(-1 0 0 1 1244.17 166)" fill="#F5C4A5"></rect>
      <rect width="7.88276" height="7.55431" transform="matrix(-1 0 0 1 1244.17 194.537)" fill="#F5C4A5"></rect>
      <rect width="7.88276" height="7.55431" transform="matrix(-1 0 0 1 1244.17 223.076)" fill="#F5C4A5"></rect>
      <rect width="7.88276" height="7.55431" transform="matrix(-1 0 0 1 1244.17 251.615)" fill="#F5C4A5"></rect>
      <rect width="7.88276" height="7.55431" transform="matrix(-1 0 0 1 1244.17 280.154)" fill="#F5C4A5"></rect>
      <rect width="7.88276" height="7.55431" transform="matrix(-1 0 0 1 1125.05 166)" fill="#F5C4A5"></rect>
      <rect width="7.88276" height="7.55431" transform="matrix(-1 0 0 1 1125.05 194.537)" fill="#F5C4A5"></rect>
      <rect width="7.88276" height="7.55431" transform="matrix(-1 0 0 1 1125.05 223.076)" fill="#F5C4A5"></rect>
      <rect width="7.88276" height="7.55431" transform="matrix(-1 0 0 1 1125.05 251.615)" fill="#F5C4A5"></rect>
      <rect width="7.88276" height="7.55431" transform="matrix(-1 0 0 1 1125.05 280.154)" fill="#F5C4A5"></rect>
      <rect width="7.88276" height="7.55431" transform="matrix(-1 0 0 1 1214.39 166)" fill="#F5C4A5"></rect>
      <rect width="7.88276" height="7.55431" transform="matrix(-1 0 0 1 1214.39 194.537)" fill="#F5C4A5"></rect>
      <rect width="7.88276" height="7.55431" transform="matrix(-1 0 0 1 1214.39 223.076)" fill="#F5C4A5"></rect>
      <rect width="7.88276" height="7.55431" transform="matrix(-1 0 0 1 1214.39 251.615)" fill="#F5C4A5"></rect>
      <rect width="7.88276" height="7.55431" transform="matrix(-1 0 0 1 1214.39 280.154)" fill="#F5C4A5"></rect>
      <rect width="7.88276" height="7.55431" transform="matrix(-1 0 0 1 1184.61 166)" fill="#F5C4A5"></rect>
      <rect width="7.88276" height="7.55431" transform="matrix(-1 0 0 1 1184.61 194.537)" fill="#F5C4A5"></rect>
      <rect width="7.88276" height="7.55431" transform="matrix(-1 0 0 1 1184.61 223.076)" fill="#F5C4A5"></rect>
      <rect width="7.88276" height="7.55431" transform="matrix(-1 0 0 1 1184.61 251.615)" fill="#F5C4A5"></rect>
      <rect width="7.88276" height="7.55431" transform="matrix(-1 0 0 1 1184.61 280.154)" fill="#F5C4A5"></rect>
      <rect width="7.88276" height="7.55431" transform="matrix(-1 0 0 1 1154.83 166)" fill="#F5C4A5"></rect>
      <rect width="7.88276" height="7.55431" transform="matrix(-1 0 0 1 1154.83 194.537)" fill="#F5C4A5"></rect>
      <rect width="7.88276" height="7.55431" transform="matrix(-1 0 0 1 1154.83 223.076)" fill="#F5C4A5"></rect>
      <rect width="7.88276" height="7.55431" transform="matrix(-1 0 0 1 1154.83 251.615)" fill="#F5C4A5"></rect>
      <rect width="7.88276" height="7.55431" transform="matrix(-1 0 0 1 1154.83 280.154)" fill="#F5C4A5"></rect>
    </g>
    <path opacity="0.3" d="M1199.01 111.08L1209.55 61.201C1210.06 58.7699 1213.23 58.124 1214.65 60.16L1241.99 99.2353C1243.25 101.031 1245.98 100.787 1246.9 98.7969L1267.57 53.9774C1268.53 51.9126 1271.4 51.7488 1272.58 53.692L1290.15 82.6036C1291.33 84.5467 1294.2 84.383 1295.16 82.3182L1313.94 41.6004C1314.88 39.5602 1317.71 39.3692 1318.91 41.2642L1328.82 56.8087" stroke="#F5C4A5" stroke-width="4.25986" stroke-linecap="round"></path>
    <path opacity="0.3" d="M1090.12 349.617L1117.78 326.446C1119.13 325.317 1121.18 326.341 1121.08 328.097L1119.23 361.801C1119.15 363.35 1120.78 364.407 1122.16 363.7L1153.25 347.776C1154.68 347.042 1156.36 348.205 1156.16 349.804L1153.32 373.581C1153.13 375.179 1154.8 376.342 1156.23 375.609L1184.48 361.142C1185.9 360.417 1187.55 361.545 1187.4 363.127L1186.12 376.11" stroke="#F5C4A5" stroke-width="3.01511" stroke-linecap="round"></path>
  </g>
  <defs>
    <clipPath id="clip0_778_925">
      <rect width="1280" height="410" fill="white"></rect>
    </clipPath>
  </defs>
</svg>
