<?xml version="1.0" encoding="UTF-8"?>
<svg xmlns="http://www.w3.org/2000/svg" width="1280" height="410" viewBox="0 0 1280 410" fill="none">
  <g clip-path="url(#clip0_778_834)">
    <circle opacity="0.7" r="50.5405" transform="matrix(-1 0 0 1 12 89)" stroke="#F5C4A5" stroke-width="8.91892"></circle>
    <circle opacity="0.7" r="27.1081" transform="matrix(-1 0 0 1 134.5 361.5)" stroke="#F5C4A5" stroke-width="4.78378"></circle>
    <g opacity="0.5">
      <rect x="37" y="177" width="7.88276" height="7.55431" fill="#F5C4A5"></rect>
      <rect x="37" y="205.537" width="7.88276" height="7.55431" fill="#F5C4A5"></rect>
      <rect x="37" y="234.076" width="7.88276" height="7.55431" fill="#F5C4A5"></rect>
      <rect x="37" y="262.615" width="7.88276" height="7.55431" fill="#F5C4A5"></rect>
      <rect x="37" y="291.154" width="7.88276" height="7.55431" fill="#F5C4A5"></rect>
      <rect x="156.117" y="177" width="7.88276" height="7.55431" fill="#F5C4A5"></rect>
      <rect x="156.117" y="205.537" width="7.88276" height="7.55431" fill="#F5C4A5"></rect>
      <rect x="156.117" y="234.076" width="7.88276" height="7.55431" fill="#F5C4A5"></rect>
      <rect x="156.117" y="262.615" width="7.88276" height="7.55431" fill="#F5C4A5"></rect>
      <rect x="156.117" y="291.154" width="7.88276" height="7.55431" fill="#F5C4A5"></rect>
      <rect x="66.7793" y="177" width="7.88276" height="7.55431" fill="#F5C4A5"></rect>
      <rect x="66.7793" y="205.537" width="7.88276" height="7.55431" fill="#F5C4A5"></rect>
      <rect x="66.7793" y="234.076" width="7.88276" height="7.55431" fill="#F5C4A5"></rect>
      <rect x="66.7793" y="262.615" width="7.88276" height="7.55431" fill="#F5C4A5"></rect>
      <rect x="66.7793" y="291.154" width="7.88276" height="7.55431" fill="#F5C4A5"></rect>
      <rect x="96.5586" y="177" width="7.88276" height="7.55431" fill="#F5C4A5"></rect>
      <rect x="96.5586" y="205.537" width="7.88276" height="7.55431" fill="#F5C4A5"></rect>
      <rect x="96.5586" y="234.076" width="7.88276" height="7.55431" fill="#F5C4A5"></rect>
      <rect x="96.5586" y="262.615" width="7.88276" height="7.55431" fill="#F5C4A5"></rect>
      <rect x="96.5586" y="291.154" width="7.88276" height="7.55431" fill="#F5C4A5"></rect>
      <rect x="126.338" y="177" width="7.88276" height="7.55431" fill="#F5C4A5"></rect>
      <rect x="126.338" y="205.537" width="7.88276" height="7.55431" fill="#F5C4A5"></rect>
      <rect x="126.338" y="234.076" width="7.88276" height="7.55431" fill="#F5C4A5"></rect>
      <rect x="126.338" y="262.615" width="7.88276" height="7.55431" fill="#F5C4A5"></rect>
      <rect x="126.338" y="291.154" width="7.88276" height="7.55431" fill="#F5C4A5"></rect>
    </g>
    <circle opacity="0.7" cx="1268" cy="89" r="50.5405" stroke="#F5C4A5" stroke-width="8.91892"></circle>
    <circle opacity="0.7" cx="1145.5" cy="361.5" r="27.1081" stroke="#F5C4A5" stroke-width="4.78378"></circle>
    <g opacity="0.5">
      <rect width="7.88276" height="7.55431" transform="matrix(-1 0 0 1 1243 177)" fill="#F5C4A5"></rect>
      <rect width="7.88276" height="7.55431" transform="matrix(-1 0 0 1 1243 205.537)" fill="#F5C4A5"></rect>
      <rect width="7.88276" height="7.55431" transform="matrix(-1 0 0 1 1243 234.076)" fill="#F5C4A5"></rect>
      <rect width="7.88276" height="7.55431" transform="matrix(-1 0 0 1 1243 262.615)" fill="#F5C4A5"></rect>
      <rect width="7.88276" height="7.55431" transform="matrix(-1 0 0 1 1243 291.154)" fill="#F5C4A5"></rect>
      <rect width="7.88276" height="7.55431" transform="matrix(-1 0 0 1 1123.88 177)" fill="#F5C4A5"></rect>
      <rect width="7.88276" height="7.55431" transform="matrix(-1 0 0 1 1123.88 205.537)" fill="#F5C4A5"></rect>
      <rect width="7.88276" height="7.55431" transform="matrix(-1 0 0 1 1123.88 234.076)" fill="#F5C4A5"></rect>
      <rect width="7.88276" height="7.55431" transform="matrix(-1 0 0 1 1123.88 262.615)" fill="#F5C4A5"></rect>
      <rect width="7.88276" height="7.55431" transform="matrix(-1 0 0 1 1123.88 291.154)" fill="#F5C4A5"></rect>
      <rect width="7.88276" height="7.55431" transform="matrix(-1 0 0 1 1213.22 177)" fill="#F5C4A5"></rect>
      <rect width="7.88276" height="7.55431" transform="matrix(-1 0 0 1 1213.22 205.537)" fill="#F5C4A5"></rect>
      <rect width="7.88276" height="7.55431" transform="matrix(-1 0 0 1 1213.22 234.076)" fill="#F5C4A5"></rect>
      <rect width="7.88276" height="7.55431" transform="matrix(-1 0 0 1 1213.22 262.615)" fill="#F5C4A5"></rect>
      <rect width="7.88276" height="7.55431" transform="matrix(-1 0 0 1 1213.22 291.154)" fill="#F5C4A5"></rect>
      <rect width="7.88276" height="7.55431" transform="matrix(-1 0 0 1 1183.44 177)" fill="#F5C4A5"></rect>
      <rect width="7.88276" height="7.55431" transform="matrix(-1 0 0 1 1183.44 205.537)" fill="#F5C4A5"></rect>
      <rect width="7.88276" height="7.55431" transform="matrix(-1 0 0 1 1183.44 234.076)" fill="#F5C4A5"></rect>
      <rect width="7.88276" height="7.55431" transform="matrix(-1 0 0 1 1183.44 262.615)" fill="#F5C4A5"></rect>
      <rect width="7.88276" height="7.55431" transform="matrix(-1 0 0 1 1183.44 291.154)" fill="#F5C4A5"></rect>
      <rect width="7.88276" height="7.55431" transform="matrix(-1 0 0 1 1153.66 177)" fill="#F5C4A5"></rect>
      <rect width="7.88276" height="7.55431" transform="matrix(-1 0 0 1 1153.66 205.537)" fill="#F5C4A5"></rect>
      <rect width="7.88276" height="7.55431" transform="matrix(-1 0 0 1 1153.66 234.076)" fill="#F5C4A5"></rect>
      <rect width="7.88276" height="7.55431" transform="matrix(-1 0 0 1 1153.66 262.615)" fill="#F5C4A5"></rect>
      <rect width="7.88276" height="7.55431" transform="matrix(-1 0 0 1 1153.66 291.154)" fill="#F5C4A5"></rect>
    </g>
  </g>
  <defs>
    <clipPath id="clip0_778_834">
      <rect width="1280" height="410" fill="white"></rect>
    </clipPath>
  </defs>
</svg>
